<svg width="12" height="12" viewBox="0 0 12 12" fill="none" xmlns="http://www.w3.org/2000/svg">
<path fill-rule="evenodd" clip-rule="evenodd" d="M10.193 3.96995C10.3338 3.82912 10.5248 3.75 10.724 3.75C10.9232 3.75 11.1142 3.82912 11.255 3.96995C11.3958 4.11078 11.4749 4.30178 11.4749 4.50095C11.4749 4.70011 11.3958 4.89112 11.255 5.03195L6.53 9.75595C6.38938 9.8964 6.19875 9.97529 6 9.97529C5.80125 9.97529 5.61063 9.8964 5.47 9.75595L0.745002 5.03195C0.604172 4.89112 0.525055 4.70011 0.525055 4.50095C0.525055 4.30178 0.604172 4.11078 0.745002 3.96995C0.885832 3.82912 1.07684 3.75 1.276 3.75C1.47517 3.75 1.66617 3.82912 1.807 3.96995L6 8.16295L10.193 3.96995Z" fill="#A5ACB8"/>
</svg>
