<svg width="24" height="24" viewBox="0 0 24 24" fill="none" xmlns="http://www.w3.org/2000/svg">
<g id="YouTube">
<path id="Subtract" fill-rule="evenodd" clip-rule="evenodd" d="M21.3903 4.11398C22.4182 4.39083 23.2288 5.20126 23.5055 6.22939C24.0197 8.10731 23.9999 12.0217 23.9999 12.0217C23.9999 12.0217 23.9999 15.9162 23.5057 17.7943C23.2288 18.8222 22.4184 19.6328 21.3903 19.9095C19.5122 20.4039 12 20.4039 12 20.4039C12 20.4039 4.50731 20.4039 2.60961 19.8899C1.58148 19.613 0.771054 18.8024 0.4942 17.7745C0 15.9162 0 12.0019 0 12.0019C0 12.0019 0 8.10731 0.4942 6.22939C0.770871 5.20144 1.60125 4.37106 2.60943 4.09439C4.48753 3.60001 11.9998 3.60001 11.9998 3.60001C11.9998 3.60001 19.5122 3.60001 21.3903 4.11398ZM15.8549 12.002L9.60788 15.6V8.40394L15.8549 12.002Z" fill="white"/>
</g>
</svg>
