<svg width="145" height="19" viewBox="0 0 145 19" fill="none" xmlns="http://www.w3.org/2000/svg">
<path d="M7.064 18.288C5.736 18.288 4.56 18.024 3.536 17.496C2.528 16.952 1.736 16.176 1.16 15.168C0.584 14.16 0.296 12.968 0.296 11.592V1.2H4.256V11.736C4.256 12.312 4.368 12.832 4.592 13.296C4.816 13.76 5.136 14.128 5.552 14.4C5.984 14.672 6.488 14.808 7.064 14.808C7.64 14.808 8.136 14.672 8.552 14.4C8.968 14.128 9.288 13.76 9.512 13.296C9.752 12.832 9.872 12.312 9.872 11.736V1.2H13.832V11.736C13.832 12.312 13.944 12.832 14.168 13.296C14.392 13.76 14.712 14.128 15.128 14.4C15.56 14.672 16.064 14.808 16.64 14.808C17.216 14.808 17.712 14.672 18.128 14.4C18.56 14.128 18.888 13.76 19.112 13.296C19.336 12.832 19.448 12.312 19.448 11.736V1.2H23.408V11.592C23.408 12.968 23.12 14.16 22.544 15.168C21.968 16.176 21.168 16.952 20.144 17.496C19.136 18.024 17.968 18.288 16.64 18.288C15.984 18.288 15.36 18.208 14.768 18.048C14.192 17.904 13.656 17.68 13.16 17.376C12.68 17.072 12.24 16.704 11.84 16.272C11.456 16.704 11.016 17.072 10.52 17.376C10.024 17.664 9.488 17.888 8.912 18.048C8.336 18.208 7.72 18.288 7.064 18.288ZM33.7109 18.312C32.3669 18.312 31.1509 18.088 30.0629 17.64C28.9749 17.192 28.0389 16.568 27.2549 15.768C26.4709 14.968 25.8629 14.04 25.4309 12.984C25.0149 11.928 24.8069 10.792 24.8069 9.576C24.8069 8.36 25.0149 7.224 25.4309 6.168C25.8629 5.112 26.4629 4.192 27.2309 3.408C28.0149 2.608 28.9509 1.992 30.0389 1.56C31.1429 1.112 32.3669 0.887999 33.7109 0.887999C35.0389 0.887999 36.2469 1.112 37.3349 1.56C38.4389 1.992 39.3749 2.608 40.1429 3.408C40.9269 4.192 41.5349 5.12 41.9669 6.192C42.3989 7.248 42.6149 8.376 42.6149 9.576C42.6149 10.792 42.3989 11.928 41.9669 12.984C41.5349 14.04 40.9269 14.968 40.1429 15.768C39.3749 16.568 38.4389 17.192 37.3349 17.64C36.2469 18.088 35.0389 18.312 33.7109 18.312ZM33.7109 14.88C34.4149 14.88 35.0629 14.752 35.6549 14.496C36.2629 14.224 36.7829 13.848 37.2149 13.368C37.6469 12.888 37.9829 12.328 38.2229 11.688C38.4629 11.032 38.5829 10.328 38.5829 9.576C38.5829 8.824 38.4629 8.128 38.2229 7.488C37.9829 6.848 37.6469 6.288 37.2149 5.808C36.7829 5.328 36.2629 4.96 35.6549 4.704C35.0629 4.432 34.4149 4.296 33.7109 4.296C32.9909 4.296 32.3349 4.432 31.7429 4.704C31.1509 4.96 30.6309 5.328 30.1829 5.808C29.7509 6.288 29.4149 6.856 29.1749 7.512C28.9509 8.152 28.8389 8.84 28.8389 9.576C28.8389 10.328 28.9509 11.032 29.1749 11.688C29.4149 12.328 29.7509 12.888 30.1829 13.368C30.6309 13.848 31.1509 14.224 31.7429 14.496C32.3349 14.752 32.9909 14.88 33.7109 14.88ZM44.1468 18V1.2H51.8268C52.9628 1.2 53.9948 1.448 54.9228 1.944C55.8668 2.44 56.6108 3.128 57.1548 4.008C57.7148 4.888 57.9948 5.904 57.9948 7.056C57.9948 8.128 57.7388 9.096 57.2268 9.96C56.7148 10.808 56.0428 11.496 55.2108 12.024L56.5548 14.304C56.6348 14.416 56.7228 14.504 56.8188 14.568C56.9308 14.632 57.0748 14.664 57.2508 14.664H58.7388V18H56.3868C55.6668 18 55.0108 17.832 54.4188 17.496C53.8268 17.144 53.3628 16.688 53.0268 16.128L51.2268 12.936C51.1148 12.936 50.9948 12.936 50.8668 12.936C50.7548 12.936 50.6348 12.936 50.5068 12.936H48.1788V18H44.1468ZM48.1788 9.6H51.3708C51.8348 9.6 52.2668 9.504 52.6668 9.312C53.0668 9.104 53.3788 8.816 53.6028 8.448C53.8428 8.064 53.9628 7.608 53.9628 7.08C53.9628 6.552 53.8428 6.104 53.6028 5.736C53.3628 5.352 53.0428 5.064 52.6428 4.872C52.2588 4.664 51.8348 4.56 51.3708 4.56H48.1788V9.6ZM59.9531 18V1.2H63.9851V7.992H66.7691C67.2331 7.992 67.6571 7.896 68.0411 7.704C68.4411 7.512 68.7531 7.224 68.9771 6.84C69.2011 6.456 69.3131 6.008 69.3131 5.496V1.2H73.3451V5.52C73.3451 6.592 73.0891 7.552 72.5771 8.4C72.0651 9.248 71.3931 9.928 70.5611 10.44L72.3851 14.28C72.4331 14.408 72.5131 14.504 72.6251 14.568C72.7531 14.632 72.8891 14.664 73.0331 14.664H74.5451V18H72.2171C71.3371 18 70.6251 17.832 70.0811 17.496C69.5371 17.16 69.1211 16.696 68.8331 16.104L66.5531 11.352C66.4251 11.352 66.3051 11.352 66.1931 11.352C66.0811 11.352 65.9611 11.352 65.8331 11.352H63.9851V18H59.9531Z" fill="#FF4C29"/>
<path d="M75.6912 18V14.64H82.8672C83.1872 14.64 83.4752 14.56 83.7312 14.4C83.9872 14.24 84.1872 14.032 84.3312 13.776C84.4912 13.52 84.5712 13.24 84.5712 12.936C84.5712 12.616 84.4912 12.328 84.3312 12.072C84.1872 11.816 83.9872 11.608 83.7312 11.448C83.4752 11.288 83.1872 11.208 82.8672 11.208H80.2752C79.2992 11.208 78.4112 11.016 77.6112 10.632C76.8112 10.248 76.1712 9.688 75.6912 8.952C75.2272 8.2 74.9952 7.304 74.9952 6.264C74.9952 5.24 75.2192 4.352 75.6672 3.6C76.1152 2.848 76.7232 2.264 77.4912 1.848C78.2592 1.416 79.1072 1.2 80.0352 1.2H87.4512V4.56H80.4912C80.2032 4.56 79.9392 4.632 79.6992 4.776C79.4592 4.92 79.2752 5.112 79.1472 5.352C79.0192 5.592 78.9552 5.856 78.9552 6.144C78.9552 6.432 79.0192 6.696 79.1472 6.936C79.2752 7.16 79.4592 7.344 79.6992 7.488C79.9392 7.632 80.2032 7.704 80.4912 7.704H83.2032C84.2752 7.704 85.2032 7.912 85.9872 8.328C86.7872 8.728 87.4032 9.296 87.8352 10.032C88.2832 10.752 88.5072 11.6 88.5072 12.576C88.5072 13.728 88.2752 14.712 87.8112 15.528C87.3632 16.328 86.7552 16.944 85.9872 17.376C85.2192 17.792 84.3712 18 83.4432 18H75.6912ZM90.1359 18V1.2H97.3599C98.4799 1.2 99.5039 1.456 100.432 1.968C101.376 2.48 102.128 3.192 102.688 4.104C103.248 5 103.528 6.04 103.528 7.224C103.528 8.408 103.248 9.464 102.688 10.392C102.128 11.304 101.384 12.016 100.456 12.528C99.5279 13.04 98.4959 13.296 97.3599 13.296H94.1679V18H90.1359ZM94.1679 9.912H96.9039C97.3839 9.912 97.8159 9.808 98.1999 9.6C98.5839 9.392 98.8959 9.088 99.1359 8.688C99.3759 8.288 99.4959 7.808 99.4959 7.248C99.4959 6.688 99.3759 6.208 99.1359 5.808C98.8959 5.408 98.5759 5.104 98.1759 4.896C97.7919 4.672 97.3679 4.56 96.9039 4.56H94.1679V9.912ZM102.322 18L107.77 3.144C108.042 2.408 108.49 1.856 109.114 1.488C109.738 1.104 110.442 0.912 111.226 0.912C112.01 0.912 112.714 1.096 113.338 1.464C113.962 1.816 114.41 2.368 114.682 3.12L120.154 18H115.81L114.754 14.76H107.626L106.522 18H102.322ZM108.658 11.424H113.722L111.586 4.728C111.554 4.632 111.506 4.568 111.442 4.536C111.394 4.488 111.33 4.464 111.25 4.464C111.17 4.464 111.098 4.488 111.034 4.536C110.986 4.584 110.954 4.648 110.938 4.728L108.658 11.424ZM128.455 18C127.079 17.984 125.839 17.76 124.735 17.328C123.631 16.896 122.695 16.304 121.927 15.552C121.159 14.8 120.567 13.92 120.151 12.912C119.735 11.888 119.527 10.784 119.527 9.6C119.527 8.416 119.735 7.32 120.151 6.312C120.567 5.288 121.159 4.4 121.927 3.648C122.711 2.896 123.647 2.304 124.735 1.872C125.839 1.44 127.079 1.216 128.455 1.2H131.047V4.56H128.551C127.799 4.576 127.111 4.712 126.487 4.968C125.879 5.224 125.351 5.576 124.903 6.024C124.471 6.472 124.135 7 123.895 7.608C123.671 8.216 123.559 8.88 123.559 9.6C123.559 10.32 123.671 10.984 123.895 11.592C124.135 12.2 124.471 12.728 124.903 13.176C125.351 13.624 125.879 13.976 126.487 14.232C127.111 14.488 127.799 14.624 128.551 14.64H131.047V18H128.455ZM137.214 18C136.27 18 135.414 17.784 134.646 17.352C133.878 16.904 133.262 16.312 132.798 15.576C132.35 14.824 132.126 13.976 132.126 13.032C132.126 12.328 132.278 11.672 132.582 11.064C132.902 10.44 133.326 9.904 133.854 9.456C133.342 9.024 132.934 8.512 132.63 7.92C132.342 7.328 132.198 6.704 132.198 6.048C132.198 5.12 132.422 4.296 132.87 3.576C133.318 2.84 133.918 2.264 134.67 1.848C135.422 1.416 136.254 1.2 137.166 1.2H144.246V4.584L137.79 4.56C137.486 4.56 137.206 4.632 136.95 4.776C136.694 4.92 136.486 5.112 136.326 5.352C136.182 5.592 136.11 5.872 136.11 6.192C136.11 6.496 136.182 6.776 136.326 7.032C136.486 7.272 136.694 7.464 136.95 7.608C137.206 7.736 137.486 7.8 137.79 7.8H143.43V11.16H137.91C137.574 11.16 137.27 11.24 136.998 11.4C136.726 11.56 136.51 11.768 136.35 12.024C136.19 12.28 136.11 12.576 136.11 12.912C136.11 13.232 136.19 13.528 136.35 13.8C136.51 14.056 136.726 14.256 136.998 14.4C137.27 14.544 137.574 14.616 137.91 14.616H144.246V18H137.214Z" fill="white"/>
</svg>
