<svg width="75" height="40" viewBox="0 0 75 40" fill="none" xmlns="http://www.w3.org/2000/svg">
<path d="M7.19838 18.288C5.87038 18.288 4.69438 18.024 3.67038 17.496C2.66238 16.952 1.87038 16.176 1.29438 15.168C0.718377 14.16 0.430377 12.968 0.430377 11.592V1.2H4.39038V11.736C4.39038 12.312 4.50238 12.832 4.72638 13.296C4.95038 13.76 5.27038 14.128 5.68638 14.4C6.11838 14.672 6.62238 14.808 7.19838 14.808C7.77438 14.808 8.27038 14.672 8.68638 14.4C9.10238 14.128 9.42238 13.76 9.64638 13.296C9.88638 12.832 10.0064 12.312 10.0064 11.736V1.2H13.9664V11.736C13.9664 12.312 14.0784 12.832 14.3024 13.296C14.5264 13.76 14.8464 14.128 15.2624 14.4C15.6944 14.672 16.1984 14.808 16.7744 14.808C17.3504 14.808 17.8464 14.672 18.2624 14.4C18.6944 14.128 19.0224 13.76 19.2464 13.296C19.4704 12.832 19.5824 12.312 19.5824 11.736V1.2H23.5424V11.592C23.5424 12.968 23.2544 14.16 22.6784 15.168C22.1024 16.176 21.3024 16.952 20.2784 17.496C19.2704 18.024 18.1024 18.288 16.7744 18.288C16.1184 18.288 15.4944 18.208 14.9024 18.048C14.3264 17.904 13.7904 17.68 13.2944 17.376C12.8144 17.072 12.3744 16.704 11.9744 16.272C11.5904 16.704 11.1504 17.072 10.6544 17.376C10.1584 17.664 9.62238 17.888 9.04638 18.048C8.47038 18.208 7.85438 18.288 7.19838 18.288ZM33.8453 18.312C32.5013 18.312 31.2853 18.088 30.1973 17.64C29.1093 17.192 28.1733 16.568 27.3893 15.768C26.6053 14.968 25.9973 14.04 25.5653 12.984C25.1493 11.928 24.9413 10.792 24.9413 9.576C24.9413 8.36 25.1493 7.224 25.5653 6.168C25.9973 5.112 26.5973 4.192 27.3653 3.408C28.1493 2.608 29.0853 1.992 30.1733 1.56C31.2773 1.112 32.5013 0.887999 33.8453 0.887999C35.1733 0.887999 36.3813 1.112 37.4693 1.56C38.5733 1.992 39.5093 2.608 40.2773 3.408C41.0613 4.192 41.6693 5.12 42.1013 6.192C42.5333 7.248 42.7493 8.376 42.7493 9.576C42.7493 10.792 42.5333 11.928 42.1013 12.984C41.6693 14.04 41.0613 14.968 40.2773 15.768C39.5093 16.568 38.5733 17.192 37.4693 17.64C36.3813 18.088 35.1733 18.312 33.8453 18.312ZM33.8453 14.88C34.5493 14.88 35.1973 14.752 35.7893 14.496C36.3973 14.224 36.9173 13.848 37.3493 13.368C37.7813 12.888 38.1173 12.328 38.3573 11.688C38.5973 11.032 38.7173 10.328 38.7173 9.576C38.7173 8.824 38.5973 8.128 38.3573 7.488C38.1173 6.848 37.7813 6.288 37.3493 5.808C36.9173 5.328 36.3973 4.96 35.7893 4.704C35.1973 4.432 34.5493 4.296 33.8453 4.296C33.1253 4.296 32.4693 4.432 31.8773 4.704C31.2853 4.96 30.7653 5.328 30.3173 5.808C29.8853 6.288 29.5493 6.856 29.3093 7.512C29.0853 8.152 28.9733 8.84 28.9733 9.576C28.9733 10.328 29.0853 11.032 29.3093 11.688C29.5493 12.328 29.8853 12.888 30.3173 13.368C30.7653 13.848 31.2853 14.224 31.8773 14.496C32.4693 14.752 33.1253 14.88 33.8453 14.88ZM44.2812 18V1.2H51.9612C53.0972 1.2 54.1292 1.448 55.0572 1.944C56.0012 2.44 56.7452 3.128 57.2892 4.008C57.8492 4.888 58.1292 5.904 58.1292 7.056C58.1292 8.128 57.8732 9.096 57.3612 9.96C56.8492 10.808 56.1772 11.496 55.3452 12.024L56.6892 14.304C56.7692 14.416 56.8572 14.504 56.9532 14.568C57.0652 14.632 57.2092 14.664 57.3852 14.664H58.8732V18H56.5212C55.8012 18 55.1452 17.832 54.5532 17.496C53.9612 17.144 53.4972 16.688 53.1612 16.128L51.3612 12.936C51.2492 12.936 51.1292 12.936 51.0012 12.936C50.8892 12.936 50.7692 12.936 50.6412 12.936H48.3132V18H44.2812ZM48.3132 9.6H51.5052C51.9692 9.6 52.4012 9.504 52.8012 9.312C53.2012 9.104 53.5132 8.816 53.7372 8.448C53.9772 8.064 54.0972 7.608 54.0972 7.08C54.0972 6.552 53.9772 6.104 53.7372 5.736C53.4972 5.352 53.1772 5.064 52.7772 4.872C52.3932 4.664 51.9692 4.56 51.5052 4.56H48.3132V9.6ZM60.0874 18V1.2H64.1194V7.992H66.9034C67.3674 7.992 67.7914 7.896 68.1754 7.704C68.5754 7.512 68.8874 7.224 69.1114 6.84C69.3354 6.456 69.4474 6.008 69.4474 5.496V1.2H73.4794V5.52C73.4794 6.592 73.2234 7.552 72.7114 8.4C72.1994 9.248 71.5274 9.928 70.6954 10.44L72.5194 14.28C72.5674 14.408 72.6474 14.504 72.7594 14.568C72.8874 14.632 73.0234 14.664 73.1674 14.664H74.6794V18H72.3514C71.4714 18 70.7594 17.832 70.2154 17.496C69.6714 17.16 69.2554 16.696 68.9674 16.104L66.6874 11.352C66.5594 11.352 66.4394 11.352 66.3274 11.352C66.2154 11.352 66.0954 11.352 65.9674 11.352H64.1194V18H60.0874Z" fill="#FF4C29"/>
<path d="M3.03344 40V36.64H10.2094C10.5294 36.64 10.8174 36.56 11.0734 36.4C11.3294 36.24 11.5294 36.032 11.6734 35.776C11.8334 35.52 11.9134 35.24 11.9134 34.936C11.9134 34.616 11.8334 34.328 11.6734 34.072C11.5294 33.816 11.3294 33.608 11.0734 33.448C10.8174 33.288 10.5294 33.208 10.2094 33.208H7.61744C6.64144 33.208 5.75344 33.016 4.95344 32.632C4.15344 32.248 3.51344 31.688 3.03344 30.952C2.56944 30.2 2.33744 29.304 2.33744 28.264C2.33744 27.24 2.56144 26.352 3.00944 25.6C3.45744 24.848 4.06544 24.264 4.83344 23.848C5.60144 23.416 6.44944 23.2 7.37744 23.2H14.7934V26.56H7.83344C7.54544 26.56 7.28144 26.632 7.04144 26.776C6.80144 26.92 6.61744 27.112 6.48944 27.352C6.36144 27.592 6.29744 27.856 6.29744 28.144C6.29744 28.432 6.36144 28.696 6.48944 28.936C6.61744 29.16 6.80144 29.344 7.04144 29.488C7.28144 29.632 7.54544 29.704 7.83344 29.704H10.5454C11.6174 29.704 12.5454 29.912 13.3294 30.328C14.1294 30.728 14.7454 31.296 15.1774 32.032C15.6254 32.752 15.8494 33.6 15.8494 34.576C15.8494 35.728 15.6174 36.712 15.1534 37.528C14.7054 38.328 14.0974 38.944 13.3294 39.376C12.5614 39.792 11.7134 40 10.7854 40H3.03344ZM17.4781 40V23.2H24.7021C25.8221 23.2 26.8461 23.456 27.7741 23.968C28.7181 24.48 29.4701 25.192 30.0301 26.104C30.5901 27 30.8701 28.04 30.8701 29.224C30.8701 30.408 30.5901 31.464 30.0301 32.392C29.4701 33.304 28.7261 34.016 27.7981 34.528C26.8701 35.04 25.8381 35.296 24.7021 35.296H21.5101V40H17.4781ZM21.5101 31.912H24.2461C24.7261 31.912 25.1581 31.808 25.5421 31.6C25.9261 31.392 26.2381 31.088 26.4781 30.688C26.7181 30.288 26.8381 29.808 26.8381 29.248C26.8381 28.688 26.7181 28.208 26.4781 27.808C26.2381 27.408 25.9181 27.104 25.5181 26.896C25.1341 26.672 24.7101 26.56 24.2461 26.56H21.5101V31.912ZM29.6641 40L35.1121 25.144C35.3841 24.408 35.8321 23.856 36.4561 23.488C37.0801 23.104 37.7841 22.912 38.5681 22.912C39.3521 22.912 40.0561 23.096 40.6801 23.464C41.3041 23.816 41.7521 24.368 42.0241 25.12L47.4961 40H43.1521L42.0961 36.76H34.9681L33.8641 40H29.6641ZM36.0001 33.424H41.0641L38.9281 26.728C38.8961 26.632 38.8481 26.568 38.7841 26.536C38.7361 26.488 38.6721 26.464 38.5921 26.464C38.5121 26.464 38.4401 26.488 38.3761 26.536C38.3281 26.584 38.2961 26.648 38.2801 26.728L36.0001 33.424ZM55.7974 40C54.4214 40 53.1814 39.792 52.0774 39.376C50.9734 38.944 50.0374 38.344 49.2694 37.576C48.5014 36.808 47.9094 35.92 47.4934 34.912C47.0774 33.888 46.8694 32.784 46.8694 31.6C46.8694 30.416 47.0774 29.32 47.4934 28.312C47.9094 27.288 48.5014 26.392 49.2694 25.624C50.0534 24.856 50.9894 24.264 52.0774 23.848C53.1814 23.416 54.4214 23.2 55.7974 23.2H58.3894V26.56H55.8934C55.1414 26.56 54.4534 26.688 53.8294 26.944C53.2214 27.2 52.6934 27.56 52.2454 28.024C51.8134 28.472 51.4774 29 51.2374 29.608C51.0134 30.216 50.9014 30.88 50.9014 31.6C50.9014 32.32 51.0134 32.984 51.2374 33.592C51.4774 34.2 51.8134 34.736 52.2454 35.2C52.6934 35.648 53.2214 36 53.8294 36.256C54.4534 36.512 55.1414 36.64 55.8934 36.64H58.3894V40H55.7974ZM64.5567 40C63.6127 40 62.7567 39.784 61.9887 39.352C61.2207 38.904 60.6047 38.312 60.1407 37.576C59.6927 36.824 59.4687 35.976 59.4687 35.032C59.4687 34.328 59.6207 33.672 59.9247 33.064C60.2447 32.44 60.6687 31.904 61.1967 31.456C60.6847 31.024 60.2767 30.512 59.9727 29.92C59.6847 29.328 59.5407 28.704 59.5407 28.048C59.5407 27.12 59.7647 26.296 60.2127 25.576C60.6607 24.84 61.2607 24.264 62.0127 23.848C62.7647 23.416 63.5967 23.2 64.5087 23.2H71.5887V26.56H65.1327C64.8287 26.56 64.5487 26.632 64.2927 26.776C64.0367 26.92 63.8287 27.112 63.6687 27.352C63.5247 27.592 63.4527 27.872 63.4527 28.192C63.4527 28.496 63.5247 28.776 63.6687 29.032C63.8287 29.272 64.0367 29.464 64.2927 29.608C64.5487 29.736 64.8287 29.8 65.1327 29.8H70.7727V33.16H65.2527C64.9167 33.16 64.6127 33.24 64.3407 33.4C64.0687 33.56 63.8527 33.768 63.6927 34.024C63.5327 34.28 63.4527 34.576 63.4527 34.912C63.4527 35.232 63.5327 35.528 63.6927 35.8C63.8527 36.056 64.0687 36.256 64.3407 36.4C64.6127 36.544 64.9167 36.616 65.2527 36.616H71.5887V40H64.5567Z" fill="white"/>
</svg>
